<?xml version="1.0" encoding="utf-8"?>
<!-- Generator: Adobe Illustrator 27.3.1, SVG Export Plug-In . SVG Version: 6.00 Build 0)  -->
<svg version="1.1" id="Camada_1" xmlns="http://www.w3.org/2000/svg" xmlns:xlink="http://www.w3.org/1999/xlink" x="0px" y="0px"
	 viewBox="0 0 382.2 257.9" style="enable-background:new 0 0 382.2 257.9;" xml:space="preserve">
<style type="text/css">
	.st0{fill:#3DD980;}
</style>
<g>
	<g>
		<g>
			<g>
				<g>
					<g>
						<path class="st0" d="M32.4,152.2c-6.6,0-18.4-3.8-20-10c-0.7-2.4-0.2-5.4,1-8c1-3.5,3.8-9,7.2-9.5c1.4-0.1,2.9,0.2,4.2,0.5
							c2.1,0.5,4.1,1.2,5.7,2.5c1.1,0.6,2.4,2,1.1,3.1c-0.5,0.4-1,0.6-1.5,1.1c-2.9,2.8-5.6,10.2-5.4,13.7c-0.1,0.3,0.2,0.2,0.5,0.2
							c5.3-0.7,10.7-2.9,15.5-6.1c5.4-3.7,10.2-9.5,12.7-15.6c1.6-3.7,2.3-8.1,0.9-11.1c-1.3-3.2-4-5.4-6.9-7
							c-8.8-4.9-18.7-8.4-25.9-15.5c-2.5-2.7-4.6-6.2-4.8-10.5c-0.2-5.5,2.1-12.2,6-17.2c3.2-4.2,7.2-7.3,11.6-9.5
							c9-4.1,19.2-3.9,27-1c3.4,1.2,6.5,2.6,9.2,4.8c1,0.9,1.8,2.2,2,3.8c0.3,2.1-0.4,4.5-1.1,6.8c0,0.1-0.7,1.7-0.6,1.8
							c-0.6,1.5-2.2,10.7-2.6,12c-0.2,0.5,0.1,0.6,0,0.9c0.1,0.4-0.5,2.4-0.7,2.8c0.1,0.3,1.5,1,1.4,1.4c0.2,0.4-0.7,0-1.3,0.4
							c-0.6,0.4-2.3-0.1-2.9-0.3c-1.1-0.4-4.5-2.1-5.2-3.2c-0.6-0.7-1-3.9-0.9-4.9c-0.1-0.3,0.2-0.3,0.3-0.8c0-2,1.3-12.1,1.6-14.1
							c0.5-2.7,1.6-5.7,0.8-7.8c-0.1,0-0.4-0.1-0.6,0c-4.5-0.4-9.3,0.3-14,2.5c-3,1.4-6,3.6-8.5,6c-4.2,4.2-7.4,9.8-8.6,15.4
							c-0.5,2.8-0.4,5.6,0.2,8.1c1.3,4.7,5.7,7.6,9.8,9.8c5.6,3.1,11.3,5.5,16.6,8.8c3.4,2.1,6.7,4.3,9,7.4c1.7,2.1,2.9,4.7,2.7,7.7
							c0,3.3-1.1,6.8-2.7,9.9c-2.8,5.4-7.3,10.4-12,13.8C46.8,149.9,39.1,152.3,32.4,152.2z"/>
					</g>
				</g>
				<g>
					<g>
						<path class="st0" d="M82.2,140.7c-1.2-0.3-4.8-2.1-5.5-3.2c-0.4-0.6-1.9-2.8-1.8-3.6c0-5.8,0.3-11.9,0.6-17.8
							c0.4-5.6,1.8-30.1,3.7-35.9c0.2-0.6,0.5-1.1,1-1.6c0.1-0.2-0.1-0.5-0.3-0.8c0.1-0.2,0.3-0.5,0.4-0.7c0.4-0.4,1.4-1,1.8-0.9
							c2.7-0.1,6.2,2.5,6.6,5c-0.1,0.3-0.4,0.2-0.5,0.4c0.4,0.6,0.4,1.5,0.6,2.3c0,1.4-0.5,9.9-0.7,11.5c-0.1,5.3-0.8,37.7-0.8,43
							c-0.1,0.7-0.9,1.4-1.4,1.8c-0.1,0.2-0.4,0.8-0.6,0.8C84.7,141.5,82.9,140.8,82.2,140.7z M89.7,71.7c-1.8,0.2-6.2-1.8-7.4-2.7
							c-1-0.5-1.9-1.2-2.4-2.2c-0.6-1.2-0.1-2.8,0-4.3c0.2-1.9,0.5-4.1,1.9-5.8c0.1-0.2,0.1-0.4,0-0.6c-0.4-0.6,0.8-2,1.4-2.1
							c1.5-0.3,5,1.3,6,2.3c0.8,0.6,0.9,1.8,1.4,2.7c-0.1,0.3-0.3,0.5-0.4,0.7c-0.2,0.2,0.1,0.5,0,0.7c0.9,2.4,0.4,5.2,0.6,7.7
							c0,0.6,0.3,2.4,0.1,3C91,71.5,90.2,71.7,89.7,71.7z"/>
					</g>
				</g>
				<g>
					<g>
						<path class="st0" d="M137.4,135.3c-2.7,0.8-8.2-1.7-9.9-3.3c-0.5-0.3-1.9-2.5-2.1-2.9c-0.1-0.4-0.5-1.8-0.4-2.2
							c-1.5-15.2-1.2-31.2,1.3-47.4c0.1-0.7,0.5-5.5,0.7-6.2c0.1-0.7,0.8-4,0.7-4.7c-3.3,2.9-5.1,7.4-7.1,11.5
							c-4,8.2-6.5,16.9-8.1,25.5c-0.6,3.5-4.2,23.6-4.7,27.1c-0.2,1.8-0.3,3.5-0.3,5.2c-0.1,0.4,0.1,1.3-0.4,1.5
							c-1,0.6-3.6-0.4-4.6-0.8c-2.6-1.1-5.2-2.6-6.3-5.2c-1.3-3.6-1.2-7.9-1.4-11.8c-0.3-10.5,0.5-21.2,1.9-32
							c0.5-3.2,2.4-14.3,4.4-17.2c0.1-0.3-0.2-0.5,0-1c0.9-2.9,4.4-1.8,6.2-0.2c0.7,0.4,1.1,2.6,1,3.5c-0.1,0.2-0.4,0.2-0.3,0.5
							c0.1,1.3,0,7.5,0,8.8c0,6.7-0.3,13.4-0.6,20c1.3-4.4,7.6-24.4,9.9-28.7c2.4-4.6,6.6-11.1,10.7-10.2c2.1,0.5,4.1,1.2,5.2,2.9
							c1.3,1.5,1.8,3.6,2.4,5.7c0.4,1.2,0.6,2.4,0.7,3.8c0,1.6,0.3,10.6,0.3,12.2c1.2-3.6,2-7.4,3.6-11.1
							c1.8-4.6,7.5-15.5,11.9-17.5c1.6-0.7,3.2-0.5,4.4,0c2.3,0.7,4.3,1.7,5.6,3.5c1.2,1.6,1.7,3.7,1.8,5.8
							c0.4,1.9,0.3,12.6,0.1,14.8c-0.1,10.7-1.5,21.6-0.8,32c0.2,2.5,0.8,4.8,0.9,7.2c0.1,0.6,0.2,1.2-0.2,1.5
							c-1.2,0.6-3.6-0.2-4.5-0.6c-2.9-1-6-2.3-7.2-5c-0.8-1.4-1.1-8.2-0.9-10.1c0.1-11.4,2.2-23.2,3.8-34.8
							c0.3-1.6,0.9-9.7,0.9-11.3c-1.7,0.8-3.3,2.2-4.4,3.7c-2.1,2.5-3.5,5.5-4.9,8.5c-2.9,6.4-4.9,13.2-6.1,19.7
							c-1,6.6-1.9,13-2.4,19.5c-0.1,1.6-0.6,11.1-0.6,12.6c-0.3,1.9,0.1,3.5,0,5.4c-0.3,0.5,0.2,1,0.1,1.4
							C137.6,135.1,137.5,135.3,137.4,135.3z"/>
					</g>
				</g>
				<g>
					<g>
						<path class="st0" d="M221.6,75.4c-0.2-6.2-0.7-12.7-3.7-17.4c-1.5-2.4-4-3.9-6.5-5c-1.9-0.9-3.9-1.7-6-1.7
							c-2-0.1-4.8,1.6-7.2,3.7c-0.9,0.8-1.8,1.7-2.5,2.5c-0.9,1-1.7,2.1-2.2,3c-1.6,2.7-2.7,5.5-3.5,8.4c-2.1,6.7-4.2,13.6-5.7,20.4
							c-0.1-3.7,0-21.2-1-24.6c0.1-0.2,0.1-0.2,0.2-0.2c0-0.7,0-1.6-0.1-2.2c-0.5-1.6-2.2-2.4-3.6-3.2c-2-0.8-4.7-2.1-5.5,0.3
							c0,0.3-0.2,1-0.2,1.2c0,0.3,0.4,0.4,0.3,0.7c-0.6,1.4-1.2,7.2-1.3,8.8c-0.1,2.7-0.5,9.9-1,18.7c0,0,0,0,0,0
							c-0.3,5-0.5,10.4-0.8,16v0c-0.7,12.5-1.3,25.2-1.7,32.4c0,0.4,0,0.8-0.1,1.4c-0.1,1.5-0.2,2.8-0.2,3.6c0,0.1,0,0.2,0,0.2
							c0,0,0,0,0,0c0.2,1,1.9,2,1.1,2.5c-1,0.8,0.3,1.5,1.1,2.1l7.6,0.1l1.8,0c0-0.1,0.1-0.3,0.1-0.5c0.2-1.3,0.4-3.8,0.6-6.6v0
							c0.4-6,0.7-13.6,0.8-15.4c0-0.1,0-0.3,0-0.6c0,0,0,0,0,0c0.2-3.6,1.3-16.3,1.6-18.5c0.9,2.4,4,5.4,5.7,7.2
							c1.4,1.5,3.5,3,6,4.1c0.8,0.4,1.6,0.7,2.5,1c3.6,1.1,7.5,1.4,10.5,0c3.5-1.7,6.3-6,7.9-9.9C221,97.1,221.8,85.9,221.6,75.4z
							 M200.5,108.8c-0.6,0.8-1.5,1.1-2.4,1.1c-1,0-2-0.5-2.5-1.5c-0.1-0.1-0.1-0.2-0.2-0.3c-1-2.2-1.9-4.6-3.3-6.5
							c-1-1.7-2.6-3.1-4.3-4c1.9-8.4,4-17,7.8-25c0.8-1.6,1.6-3.3,2.5-4.9c0.4-0.7,0.8-1.5,1.3-2.2c1.9-3.2,4.6-6.7,7.8-8.3
							c0.5-0.2,1.1-0.8,1.2-0.2c2,6.6,1.7,14.3,1,21.9c-0.5,5.5-1.4,11.2-3.1,16.8c-1.2,4.1-2.7,8.3-5,11.9
							C201.2,107.9,200.9,108.4,200.5,108.8z"/>
					</g>
				</g>
				<g>
					<g>
						<path class="st0" d="M246.2,113.8c-4,0.5-12.1-3.3-14.5-6.1c-1-1.4-1.9-3.1-2.2-4.9c-1.6-4.8-2.1-10.1-2-15.6
							c-0.2-10.2,0.6-20.6,1.5-31c1.1-10.9,2.4-22.1,5-33.1c0.2-0.6,0.7-3,0.9-3.6c0.1-0.2-0.2-0.4-0.3-0.7
							c-0.1-0.6,0.7-2.8,0.9-3.4c0.2-0.5,0.2-0.5,0.6-0.5c2.7-0.5,7.4,1.4,8.4,3.7c0.4,0.6,0,3.1,0,3.8c-0.1,0.4-0.6,0.8-0.4,1.1
							c-0.1,0.9-0.4,6.1-0.4,7c-0.9,15.4-2.7,30.8-3.3,46.2c-0.5,6.6-0.6,13.2-0.3,19.7c0.3,4.5,0.8,9,2.4,12.8
							c1.6,0.7,3.1,1.5,4.2,2.8c0.2,0.4,0.8,1,0.4,1.3C247.2,113.7,246.5,113.8,246.2,113.8z"/>
					</g>
				</g>
				<g>
					<g>
						<path class="st0" d="M273.5,106.5c-3.5,0.2-6.8-0.6-9.9-1.7c-4.3-1.5-8.5-3.8-11.1-7.6c-2.5-3.6-3.3-8.6-3.6-13.6
							c-0.3-6.9,0.8-14.5,3.7-21.6c2-5.2,4.9-10.3,8.8-14.5c2.7-3.1,6-5.8,9.6-7.4c1.8-0.8,4-1.3,5.9-1.4c3.5-0.1,6.9,0.8,10,2.2
							c2.8,1.3,5.3,3.3,6.7,6c1,2.5,1.2,5.7,0.5,8.9c-1.1,4.5-3.4,9-6.4,13c-2.5,3.2-5.9,5.8-9.3,7.5c-5.6,2.8-11.7,2.8-16.8,1.5
							c-0.8,6.6-0.7,13.1,1,18.7c0.3,1.1,0.7,2.3,1.2,3.3c0.4,0.4,1.1-0.1,1.6-0.3c1.7-0.6,3.4-1.6,5-2.9c3.8-3,6.8-7.1,9.6-11.2
							c0.3-0.5,2-2.9,2.4-3.3c0.4-0.7,1.9-0.6,2.3-0.4c2.9,0.4,9.2,2.7,10.1,5.3c0.1,0.4-0.5,1.1-0.7,1.4c-3.2,5-7,10.4-11.6,14.2
							C280,104.7,276.5,106.2,273.5,106.5z M262.5,73.3c5-1.5,9.8-5.1,13.9-9.5c1.9-2.2,3.8-4.7,5.3-7.4c1.6-2.9,3.1-6,3.4-9
							c0.3-1.5,0-3-0.5-4.2c-0.1,0-0.3,0.1-0.1,0c-10.5,1.8-18.9,17.4-21.7,28.5C262.7,72.1,262.5,72.7,262.5,73.3z"/>
					</g>
				</g>
			</g>
			<g>
				<g>
					<g>
						<path class="st0" d="M114,241.5c-6.6,0-18.4-3.8-20-10c-0.7-2.4-0.2-5.4,1-8c1-3.5,3.8-9,7.2-9.5c1.4-0.1,2.9,0.2,4.2,0.5
							c2.1,0.5,4.1,1.2,5.7,2.5c1.1,0.6,2.4,2,1.1,3.1c-0.5,0.4-1,0.6-1.5,1.1c-2.9,2.8-5.6,10.2-5.4,13.7c-0.1,0.3,0.2,0.2,0.5,0.2
							c5.3-0.7,10.7-2.9,15.5-6.1c5.4-3.7,10.2-9.5,12.7-15.6c1.6-3.7,2.3-8.1,0.9-11.1c-1.3-3.2-4-5.4-6.9-7
							c-8.8-4.9-18.7-8.4-25.9-15.5c-2.5-2.7-4.6-6.2-4.8-10.5c-0.2-5.5,2.1-12.2,6-17.2c3.2-4.2,7.2-7.3,11.6-9.5
							c9-4.1,19.2-3.9,27-1c3.4,1.2,6.5,2.6,9.2,4.8c1,0.9,1.8,2.2,2,3.8c0.3,2.1-0.4,4.5-1.1,6.8c0,0.1-0.7,1.7-0.6,1.8
							c-0.6,1.5-2.2,10.7-2.6,12c-0.2,0.5,0.1,0.6,0,0.9c0.1,0.4-0.5,2.4-0.7,2.8c0.1,0.3,1.5,1,1.4,1.4c0.2,0.4-0.7,0-1.3,0.4
							c-0.6,0.4-2.3-0.1-2.9-0.3c-1.1-0.4-4.5-2.1-5.2-3.2c-0.6-0.7-1-3.9-0.9-4.9c-0.1-0.3,0.2-0.3,0.3-0.8c0-2,1.3-12.1,1.6-14.1
							c0.5-2.7,1.6-5.7,0.8-7.8c-0.1,0-0.4-0.1-0.6,0c-4.5-0.4-9.3,0.3-14,2.5c-3,1.4-6,3.6-8.5,6c-4.2,4.2-7.4,9.8-8.6,15.4
							c-0.5,2.8-0.4,5.6,0.2,8.1c1.3,4.7,5.7,7.6,9.8,9.8c5.6,3.1,11.3,5.5,16.6,8.8c3.4,2.1,6.7,4.3,9,7.4c1.7,2.1,2.9,4.7,2.7,7.7
							c0,3.3-1.1,6.8-2.7,9.9c-2.8,5.4-7.3,10.4-12,13.8C128.4,239.2,120.7,241.5,114,241.5z"/>
					</g>
				</g>
				<g>
					<g>
						<path class="st0" d="M168.2,157.5c0.5-3.5,1.1-16.7,1.3-20.3c0.1,0,2.5-3.2,2.6-3.2c-0.1-1.3,1.2-0.9,2.5-0.9
							c1.5,0.2,5.1,2,6.1,3.1c0.2,0.5,0.8,1.1,0.1,1.5c0,0,0.1-0.3,0,0c0.2,10.7-0.7,14.9-0.7,17.1L168.2,157.5z M181.5,140.1
							l-1.6,22.2c-1.1,14.6-1.9,29.1-2.1,43.7c-0.1,6.7-0.3,13.4,0.4,20c-0.1,0.3,0.1,1.1-0.2,1.5c-0.7,1.6-2.8,1.5-4.1,1.1
							c-3.4-0.9-6.5-2.8-8.2-5.7c-0.5-0.9-0.7-5-0.6-6.2c-0.1-5-0.1-10.1,0-15.2c0.1-14.9,4.1-79.6,6.1-96.6
							C174.6,116.5,178.1,128.3,181.5,140.1z"/>
					</g>
				</g>
				<g>
					<g>
						<path class="st0" d="M239.5,219.3c-3-0.7-8.6-3.1-8.5-6.5c-0.1-6,0.3-12,0.7-18.1c0.7-9.8,1.9-19.9,3.9-29.8
							c-0.7,2.1-4.6,14.7-5.2,16.9c-0.5,1.2-3.1,9.1-3.4,10.3c-1.6,4.6-3.4,9.3-5.7,13.7c-2.1,3.8-4.7,7.6-8,10.3
							c-1.9,1.8-4.4,3.1-6.6,3.4c-4.9,0.5-14.6-3.9-17.3-7.7c-1.8-2.8-2.4-6.7-2.8-10.3c-0.4-7.2,1-14.9,3.6-22.2
							c1.7-5.2,4.3-10.4,8-14.6c4.9-5.8,13.2-9.9,19.4-9.1c4.7,0.5,8.9,2.4,12.4,5.2c0.4,0.4,0.7-0.6,1.1-1.1c1.6-3,3.5-5.8,5.7-8.2
							c0.7-0.8,1.5-1.7,2.4-2.2c1.1-0.3,3.7,1,4.8,1.5c1.4,0.9,2.1,2.7,2.3,4.6c0.5,3.9,0.3,7.8,0.2,11.8c-0.1,0.2-0.2,1.2-0.3,1.3
							c0.1,2.1-1.2,15.5-1.3,17.8c-0.9,9.7-1.3,19.5-1.3,29.2c-0.1,0.4,0.1,2.6-0.1,3C242.7,220.2,240.9,219.7,239.5,219.3z
							 M208.4,201.7c1.9-2.6,3.8-5.3,5.5-8c2.9-5.1,5.3-10.4,7.6-15.7c2-4.2,4.2-8.5,6.4-12.6c0.2-0.3,0.1-0.4-0.2-0.5
							c-0.3-0.3-0.6-0.5-1-0.8c-1.9-1.6-4.6-2.1-6.8-1.1c-2.9,1.3-5.8,3.4-8.1,5.8c-3.2,3.2-5.6,7.3-7.5,11.4
							c-3.8,8.7-5.5,18.6-4.7,27.3c0.2,1.7,2.3,2.4,3.5,1.2C204.9,206.5,206.7,204,208.4,201.7z"/>
					</g>
				</g>
				<g>
					<g>
						<path class="st0" d="M273.1,240.2c-3,0.4-5.9-0.3-8.5-1.4c-3.1-1.1-8.9-3.9-8.5-7.5c0.2-0.5,0.3-1.6,0.8-2
							c0.6-0.5,3.2-2,3.9-2.2c1.2-0.2,3.9,1.1,4.7,1.7c0.2,0.2,0.7,0.6,0.6,0.9c-0.5,1.4-1,3.6,0.1,3c6.6-3.4,13-9.3,17.2-15.9
							c4.2-6.5,6.6-13.8,8.3-20.8c2.7-10.5,3.9-20.9,4.3-31.2c-1.7,5.3-3.7,10.4-5.9,15.6c-3.2,8-7.4,15.9-12.7,22.9
							c-1.9,2.6-4.3,5.4-7,6.9c-1.7,0.9-3.4,0.9-5,0.7c-3.4-0.5-6.6-1.9-9.3-3.5c-1.8-1.1-3.3-2.5-4.4-4.4c-2-4.6-1.9-10.6-1.5-16.2
							c1.1-10.7,5.3-22.4,11.8-32.1c2.7-3.9,5.8-8.2,9.9-10.3c3-1.6,6.2-1.6,9.1-1c3.6,0.9,7.1,2.2,10.3,4c0.7,0.4,0.8-0.9,1.2-1.8
							c0.5-1,1.6-4.2,2.5-4.7c0.9-0.7,2.7-0.1,3.6,0c2,0.8,4.3,1.5,5.5,3.2c0.7,0.6,2,4.3,2.1,5.3c1.5,5.1,1.5,11.1,1.6,16.8
							c0.2,10.8-0.5,22-3.1,33.2c-1.8,7.7-4.2,15.9-8.8,22.9c-3.5,5.5-8.1,10.4-13.6,13.8C279.5,238,276.3,239.8,273.1,240.2z
							 M262.5,195.6c0.2,1.6,2.2,2.2,3.3,1c4.9-5.3,8.3-10.3,10.6-14.1c4.8-7.9,7.5-15.1,9.9-21.2c1.5-4.1,2.7-7.5,3.4-10
							c0.2-0.3-0.1-0.6-0.1-0.7c-0.2-0.3-0.5-0.9-1.3-1.4c-0.9-0.5-1.7-0.5-2-0.5c-1.2,0.3-3.1,0.9-5.1,2c0,0-0.5,0.3-1,0.6
							c-7,4.9-12.2,14.6-12.2,14.6c-3.6,6.9-4.8,13.1-5.3,16C261.9,187.2,262.1,191.9,262.5,195.6z"/>
					</g>
				</g>
				<g>
					<g>
						<path class="st0" d="M336.8,199.3c-3.5,0.2-6.8-0.6-9.9-1.7c-4.3-1.5-8.5-3.8-11.1-7.6c-2.5-3.6-3.3-8.6-3.6-13.6
							c-0.3-6.9,0.8-14.5,3.7-21.6c2-5.2,4.9-10.3,8.8-14.5c2.7-3.1,6-5.8,9.6-7.4c1.8-0.8,4-1.3,5.9-1.4c3.5-0.1,6.9,0.8,10,2.2
							c2.8,1.3,5.3,3.3,6.7,6c1,2.5,1.2,5.7,0.5,8.9c-1.1,4.5-3.4,9-6.4,13c-2.5,3.2-5.9,5.8-9.3,7.5c-5.6,2.8-11.7,2.8-16.8,1.5
							c-0.8,6.5-0.7,13.1,1,18.7c0.3,1.1,0.7,2.3,1.2,3.3c0.4,0.4,1.1-0.1,1.6-0.3c1.7-0.6,3.4-1.6,5-2.9c3.8-3,6.8-7.1,9.6-11.2
							c0.3-0.5,2-2.9,2.4-3.3c0.4-0.7,1.9-0.6,2.3-0.4c2.9,0.4,9.2,2.7,10.1,5.3c0.1,0.4-0.5,1.1-0.7,1.4c-3.2,5-7,10.4-11.6,14.2
							C343.3,197.5,339.9,199,336.8,199.3z M325.8,166c5-1.5,9.8-5.1,13.9-9.5c1.9-2.2,3.8-4.7,5.3-7.4c1.6-2.9,3.1-6,3.4-9
							c0.3-1.5,0-3-0.5-4.2c-0.1,0-0.3,0.1-0.1,0c-10.5,1.8-18.9,17.4-21.7,28.5C326,164.9,325.9,165.5,325.8,166z"/>
					</g>
				</g>
			</g>
		</g>
	</g>
	<g>
		<g>
			<path class="st0" d="M343.7,114.9c-0.7,2.4-9.6,7.3-17,9.5c-0.9,0.1-0.5-0.2-1-0.2c-1.2,0.5-2.5,0.9-4,1.3
				c-0.7,0.2-1.4,0.4-2.1,0.6c-0.3,0.1-0.6,0.2-1,0.3c-0.3,0.1-0.7,0.2-1.1,0.2c-2.8,0.6-8.6,1.9-14.7,3.2c-0.4,0.1-0.9,0.2-1.3,0.3
				c-7.2,1.5-14.3,3.1-16.6,3.5c-4.4,1-15.1,3.4-28.5,6.4c-0.5,0.1-1,0.2-1.5,0.3c-8.5,1.9-18,4.1-27.6,6.2
				c-0.7,0.2-1.4,0.3-2.1,0.5c-9.2,2.1-18.5,4.2-27.1,6.1c-0.8,0.2-1.7,0.4-2.5,0.6c-3.5,0.8-6.8,1.5-10,2.3
				c-1.8,0.4-3.6,0.8-5.4,1.2c-4.2,1-8,1.8-11.3,2.6c-0.7,0.1-1.3,0.3-2,0.4c-0.3,0.1-0.7,0.2-1,0.2c-1.6,0.4-3.1,0.7-4.3,1
				c-1.3,0.3-2.4,0.6-3.3,0.8c-0.5,0.1-1,0.1-1.4,0.2c-1.5,0.1-2.8,0-3.5-0.2c-0.3,0-1.3,0.1-1.9,0.1c-0.2,0-0.3,0-0.4,0
				c-0.6-0.2,0-1,0.8-1.8c0.5-0.6,1.2-1.1,1.5-1.5c0.8-0.7,3.1-2.5,5.7-4.1c1-0.7,2.1-1.3,3.1-1.8c1-0.5,1.9-1,2.7-1.3
				c0.3-0.1,0.7-0.3,1.2-0.5c0.5-0.2,1-0.4,1.5-0.6c0,0,0,0,0,0c0.4-0.2,0.7-0.3,1.1-0.5c0.1,0,0.2-0.1,0.2-0.1
				c1.7-0.7,3.6-1.4,5.2-1.9c0.5-0.2,0.9-0.3,1.3-0.4c0.3-0.1,0.5-0.1,0.7-0.2c0.9-0.2,1.8-0.4,2.8-0.6c0.6-0.1,1.2-0.3,1.8-0.4
				c0,0,0,0,0.1,0c0,0,0.1,0,0.2,0c1.8-0.4,3.5-0.8,5.3-1.2c0,0,0,0,0.1,0c3.1-0.7,6.2-1.4,9.2-2.1c0.8-0.2,1.7-0.4,2.5-0.6
				c9-2,18.1-4,27.1-5.9c0.7-0.2,1.4-0.3,2.1-0.5c0.4-0.1,0.7-0.1,1-0.2c4.9-1,14.8-3.2,26.6-5.7c0.5-0.1,1-0.2,1.5-0.3
				c19.5-4.1,43.8-9.2,60.5-12.4c0.7-0.1,1.4-0.3,2.1-0.4c0.7-0.1,1.4-0.3,2.1-0.4c5.1-1,9.2-1.6,11.8-2c1.7-0.3,3.1-0.3,4.4-0.2
				c0.4,0,1.6-0.5,2.4-0.8c0.5,0,1.3,0,1.8,0C342.6,114,344,114.5,343.7,114.9z"/>
		</g>
	</g>
</g>
</svg>
